<svg xmlns="http://www.w3.org/2000/svg" viewBox="0 0 800 950">
  <rect width="800" height="950" fill="#e9dfc5"/>
  <circle cx="650" cy="155" r="95" fill="#f4c85a" opacity=".85"/>
  <path d="M0 650C165 545 330 590 475 505c130-76 223-57 325-5v450H0Z" fill="#718760"/>
  <path d="M0 735c155-88 294-58 425-5 147 59 236 30 375-35v255H0Z" fill="#245443"/>
  <g fill="none" stroke="#fff8ea" stroke-width="8" stroke-linecap="round" opacity=".82">
    <path d="M165 590c12-95 70-162 157-203"/>
    <path d="M235 506c-46-5-78-30-97-70"/>
    <path d="M279 456c46-12 80-39 101-82"/>
    <path d="M560 640c-2-76 32-137 101-184"/>
    <path d="M611 555c-42-6-72-29-91-65"/>
  </g>
  <g transform="translate(145 165)">
    <rect width="370" height="290" rx="36" fill="#fff8ea" opacity=".94"/>
    <path d="M74 207c56-83 126-112 220-90" fill="none" stroke="#d8795d" stroke-width="10" stroke-linecap="round"/>
    <circle cx="109" cy="108" r="28" fill="#f4c85a"/>
    <circle cx="170" cy="153" r="22" fill="#718760"/>
    <circle cx="252" cy="101" r="32" fill="#d8795d"/>
    <path d="M83 230h201" stroke="#245443" stroke-width="8" stroke-linecap="round"/>
  </g>
  <text x="55" y="895" fill="#fff8ea" font-family="Arial, sans-serif" font-size="27" font-weight="700" letter-spacing="4">DEVELOPMENT ILLUSTRATION</text>
</svg>
